# xmcd
#
# Track frame offsets:
#	150
#	13237
#	29702
#	46937
#	58437
#	73285
#	87572
#	98682
#	112470
#	124332
#	137565
#	147940
#	161007
#	175545
#	188840
#
# Disc length: 2757 seconds
#
# Revision: 1
# Processed by: cddbd v1.5.1PL0 Copyright (c) Steve Scherf et al.
# Submitted via: CDex 1.50Beta5
#
DISCID=e80ac30f
DTITLE=坂本 九 - 坂本 九 ベスト30 Disc 2
DYEAR=1900
DGENRE=
TTITLE0=東京五輪音頭
TTITLE1=九ちゃんのツンツン節
TTITLE2=見上げてごらん夜の星を
TTITLE3=九ちゃんの炭坑節
TTITLE4=明日があるさ
TTITLE5=勝利の旗
TTITLE6=幸せなら手をたたこう
TTITLE7=サヨナラ東京
TTITLE8=ともだち
TTITLE9=涙くんさよなら
TTITLE10=結構だね音頭
TTITLE11=レットキス(ジェンカ)
TTITLE12=世界の国からこんにちは
TTITLE13=夕やけの空
TTITLE14=あの時の約束
EXTD=
EXTT0=
EXTT1=
EXTT2=
EXTT3=
EXTT4=
EXTT5=
EXTT6=
EXTT7=
EXTT8=
EXTT9=
EXTT10=
EXTT11=
EXTT12=
EXTT13=
EXTT14=
PLAYORDER=
